<svg width="23" height="24" viewBox="0 0 23 24" fill="none" xmlns="http://www.w3.org/2000/svg">
<path d="M13.5805 20.9704C17.5892 20.704 20.7824 17.4655 21.0451 13.4C21.0965 12.6044 21.0965 11.7804 21.0451 10.9848C20.7824 6.91922 17.5892 3.68077 13.5805 3.4143C12.2128 3.32339 10.785 3.32358 9.42016 3.4143C5.41145 3.68077 2.2183 6.91922 1.95555 10.9848C1.90414 11.7804 1.90414 12.6044 1.95555 13.4C2.05125 14.8807 2.70611 16.2517 3.47707 17.4094C3.92471 18.2198 3.62928 19.2313 3.16302 20.1149C2.82684 20.752 2.65875 21.0706 2.79371 21.3007C2.92868 21.5308 3.23016 21.5381 3.83311 21.5528C5.02551 21.5818 5.82956 21.2437 6.46781 20.7731C6.82979 20.5062 7.01079 20.3727 7.13554 20.3574C7.26027 20.342 7.50577 20.4431 7.99667 20.6454C8.43787 20.8271 8.95016 20.9392 9.42016 20.9704C10.785 21.0612 12.2128 21.0614 13.5805 20.9704Z" stroke="#C0C0C0" stroke-width="1.4375" stroke-linejoin="round"/>
<path d="M7.1875 15.3252L8.95264 10.0298C9.04313 9.7583 9.29717 9.5752 9.58333 9.5752C9.86949 9.5752 10.1235 9.7583 10.214 10.0298L11.9792 15.3252M14.8542 9.5752V15.3252M8.14583 13.4085H11.0208" stroke="#C0C0C0" stroke-width="1.4375" stroke-linecap="round" stroke-linejoin="round"/>
</svg>
