<svg width="23" height="24" viewBox="0 0 23 24" fill="none" xmlns="http://www.w3.org/2000/svg">
<path d="M16.7761 2.80153C12.2944 3.58335 11.5 8.0544 11.5 8.0544V21.9502C11.5 21.9502 12.3498 17.2805 17.2504 16.7358C17.7764 16.6773 18.2083 16.2554 18.2083 15.7266V4.11862C18.2083 3.32541 17.5582 2.6651 16.7761 2.80153Z" stroke="#BFBFBF" stroke-width="1.4375" stroke-linecap="round" stroke-linejoin="round"/>
<path d="M5.11143 5.65846C7.46937 5.65516 9.74514 6.50858 11.5003 8.05428V21.9501C9.74514 20.4044 7.46937 19.551 5.11143 19.5543C3.61451 19.5543 2.86605 19.5543 2.53537 19.3427C2.33684 19.2156 2.25572 19.1344 2.12865 18.9359C1.91699 18.6052 1.91699 18.0153 1.91699 16.8354V8.91987C1.91699 7.55157 1.91699 6.86742 2.44287 6.31285C2.96874 5.75829 3.50709 5.72967 4.58377 5.67244C4.75845 5.66315 4.93438 5.65846 5.11143 5.65846Z" stroke="#BFBFBF" stroke-width="1.4375" stroke-linecap="round" stroke-linejoin="round"/>
<path d="M11.5 21.9512C13.2552 20.4055 15.5309 19.5521 17.8889 19.5554C19.3858 19.5554 20.1343 19.5554 20.4649 19.3438C20.6635 19.2167 20.7446 19.1355 20.8716 18.937C21.0833 18.6063 21.0833 18.0164 21.0833 16.8365V8.92097C21.0833 7.55267 21.0833 6.86852 20.5575 6.31395C20.0316 5.75939 19.285 5.7158 18.2083 5.65857" stroke="#BFBFBF" stroke-width="1.4375" stroke-linecap="round" stroke-linejoin="round"/>
</svg>
