<svg width="26" height="22" viewBox="0 0 26 22" fill="none" xmlns="http://www.w3.org/2000/svg">
<path d="M24.5037 3.29071C25.0018 4.5794 24.3033 5.46169 22.9515 6.33079C21.8606 7.03203 20.4709 7.7917 18.9983 9.09049C17.5548 10.3637 16.1459 11.8971 14.894 13.4066C13.6471 14.9098 12.5873 16.3507 11.8384 17.4176C11.3544 18.107 10.6792 19.1354 10.6792 19.1354C10.203 19.8888 9.34678 20.3449 8.42874 20.3334C7.51051 20.322 6.6671 19.8451 6.21149 19.0796C5.04683 17.123 4.14813 16.3503 3.73507 16.0728C2.62985 15.3301 1.33301 15.2203 1.33301 13.4894C1.33301 12.115 2.49371 11.0007 3.92553 11.0007C4.9364 11.038 5.87598 11.4355 6.7085 11.995C7.24065 12.3526 7.80438 12.8256 8.39074 13.4481C9.07891 12.5095 9.9082 11.4265 10.8378 10.3058C12.1879 8.67831 13.7815 6.93226 15.4904 5.42501C17.1703 3.94333 19.1125 2.5564 21.1712 1.8231C22.5137 1.34496 24.0057 2.00204 24.5037 3.29071Z" stroke="white" stroke-width="1.75" stroke-linecap="round" stroke-linejoin="round"/>
</svg>
