<svg width="24" height="24" viewBox="0 0 24 24" fill="none" xmlns="http://www.w3.org/2000/svg">
<path d="M10.4765 6.73634C10.4765 4.66958 8.80103 2.99414 6.73427 2.99414C4.6675 2.99414 2.99206 4.66958 2.99206 6.73634C2.99206 8.80311 4.6675 10.4785 6.73427 10.4785C8.80103 10.4785 10.4765 8.80311 10.4765 6.73634Z" stroke="#C0C0C0" stroke-width="1.49688" stroke-linecap="round" stroke-linejoin="round"/>
<path d="M20.9551 17.2139C20.9551 15.1471 19.2797 13.4717 17.2129 13.4717C15.1461 13.4717 13.4707 15.1471 13.4707 17.2139C13.4707 19.2807 15.1461 20.9561 17.2129 20.9561C19.2797 20.9561 20.9551 19.2807 20.9551 17.2139Z" stroke="#C0C0C0" stroke-width="1.49688" stroke-linecap="round" stroke-linejoin="round"/>
<path d="M10.4765 17.2139C10.4765 15.1471 8.80103 13.4717 6.73427 13.4717C4.6675 13.4717 2.99206 15.1471 2.99206 17.2139C2.99206 19.2807 4.6675 20.9561 6.73427 20.9561C8.80103 20.9561 10.4765 19.2807 10.4765 17.2139Z" stroke="#C0C0C0" stroke-width="1.49688" stroke-linecap="round" stroke-linejoin="round"/>
<path d="M17.2129 2.99414V4.33093M17.2129 4.33093C17.8771 4.33093 18.4785 4.60013 18.9139 5.0354M17.2129 4.33093C16.5487 4.33093 15.9473 4.60013 15.512 5.0354M18.9139 5.0354C19.3493 5.47075 19.6186 6.07224 19.6186 6.73662M18.9139 5.0354L19.8591 4.09021M15.512 5.0354C15.0766 5.47075 14.8072 6.07224 14.8072 6.73662M15.512 5.0354L14.5668 4.09021M17.2129 9.14233V10.4785M17.2129 9.14233C17.8773 9.14233 18.4788 8.873 18.9142 8.43757M17.2129 9.14233C16.5485 9.14233 15.947 8.873 15.5117 8.43757M18.9142 8.43757C19.3494 8.00224 19.6186 7.40087 19.6186 6.73662M18.9142 8.43757L19.8591 9.38248M15.5117 8.43757C15.0765 8.00224 14.8072 7.40087 14.8072 6.73662M15.5117 8.43757L14.5668 9.38248M20.9551 6.73634L19.6186 6.73662M14.8072 6.73662L13.4707 6.73634" stroke="#C0C0C0" stroke-width="1.49688" stroke-linecap="round" stroke-linejoin="round"/>
</svg>
