<svg width="21" height="21" viewBox="0 0 21 21" fill="none" xmlns="http://www.w3.org/2000/svg">
<path d="M3.96938 21C3.93346 21 3.89753 20.9963 3.8221 20.9634C3.34434 20.7362 3.24375 20.4102 3.24375 20.2599V16.3179H1.72785C0.549604 16.3179 -2.86102e-06 15.7537 -2.86102e-06 14.5154V1.80251C-2.86102e-06 0.564201 0.513682 0 1.72785 0H19.2722C20.4504 0 21 0.564201 21 1.80251V14.4824C21 15.7207 20.4863 16.2849 19.2722 16.2849H8.12915L4.22802 20.8864C4.16336 20.9524 4.08074 21 3.96938 21ZM1.62008 1.33723C1.41173 1.33723 1.34707 1.38852 1.34707 1.65597V14.4824C1.34707 14.7425 1.62726 14.9843 1.9793 14.9843H4.00889C4.22802 14.9843 4.3753 15.1345 4.3753 15.358V18.7725L7.72323 15.0612C7.79507 14.988 7.90643 14.9477 7.98187 14.9477H19.4554C19.6242 14.9477 19.7284 14.9074 19.7284 14.6289V1.65597C19.7284 1.4105 19.5703 1.33723 19.4554 1.33723H1.62008Z" fill="#C0C0C0"/>
<path d="M4.31064 6.17688H16.6858C17.0809 6.17688 17.4042 5.84716 17.4042 5.44416C17.4042 5.04115 17.0809 4.71143 16.6858 4.71143H4.31064C3.9155 4.71143 3.5922 5.04115 3.5922 5.44416C3.5922 5.84716 3.9155 6.17688 4.31064 6.17688Z" fill="#C0C0C0"/>
<path d="M16.6894 9.58423H4.31064C3.9155 9.58423 3.5922 9.91396 3.5922 10.317C3.5922 10.72 3.9155 11.0497 4.31064 11.0497H16.6858C17.0809 11.0497 17.4042 10.72 17.4042 10.317C17.4042 9.91396 17.0845 9.58423 16.6894 9.58423Z" fill="#C0C0C0"/>
</svg>
