<svg width="24" height="25" viewBox="0 0 24 25" fill="none" xmlns="http://www.w3.org/2000/svg">
<path d="M20 9.5C19.1434 5.4811 14.9912 2.5 11.0011 2.5C7.45834 2.5 4.08963 4.59916 2.68627 7.87966C0.0907623 13.9469 5.41302 18.126 9.38449 21.867C9.81818 22.273 10.3978 22.5 11.0011 22.5C11.5513 22.5 12.0819 22.3112 12.5 21.9699" stroke="#5B5B5B" stroke-linecap="round"/>
<path d="M14 9.69621C13.3876 8.67979 12.2732 8 11 8C9.067 8 7.5 9.567 7.5 11.5C7.5 12.8962 8.31753 14.1015 9.5 14.6632" stroke="#5B5B5B" stroke-linecap="round"/>
<path d="M17 16.5H17.0087" stroke="#5B5B5B" stroke-linecap="round" stroke-linejoin="round"/>
<path d="M17.8981 22.1518C17.6572 22.3752 17.3352 22.5 17.0001 22.5C16.665 22.5 16.343 22.3752 16.1021 22.1518C13.8959 20.0943 10.9394 17.7958 12.3812 14.4588C13.1608 12.6545 15.0321 11.5 17.0001 11.5C18.9681 11.5 20.8394 12.6545 21.619 14.4588C23.059 17.7916 20.1097 20.1014 17.8981 22.1518Z" stroke="#5B5B5B"/>
</svg>
