<svg width="125" height="26" viewBox="0 0 125 26" fill="none" xmlns="http://www.w3.org/2000/svg">
<path d="M55.4041 8.74561L50.1219 20.7129L44.9428 8.74561H41.0312L48.8375 25.6456H51.4401L59.328 8.74561H55.4041Z" fill="white"/>
<path d="M89.0571 12.2126L83.7872 17.5517C83.5208 17.812 83.2652 18.0584 83.0249 18.2894L78.3418 23.0064V25.6629H95.0061V22.1533L84.1214 22.1841C84.1661 22.1394 87.7959 18.4834 95.0061 11.23V8.72754H78.3418V12.2126H89.0571Z" fill="white"/>
<path d="M111.589 10.9265C110.822 10.1596 109.924 9.55742 108.902 9.11698C107.874 8.68116 106.79 8.46094 105.638 8.46094C104.486 8.46094 103.367 8.68116 102.344 9.11698C101.317 9.55742 100.429 10.1596 99.6724 10.9265C98.9209 11.6934 98.3233 12.5912 97.8829 13.6138C97.4425 14.641 97.2207 15.739 97.2207 16.9078C97.2207 18.0767 97.4409 19.1793 97.8829 20.2065C98.3233 21.2291 98.9209 22.1223 99.6724 22.8784C100.43 23.6299 101.317 24.2275 102.344 24.6679C103.367 25.1037 104.469 25.3239 105.638 25.3239C106.807 25.3239 107.874 25.1037 108.902 24.6679C109.924 24.2275 110.822 23.6299 111.589 22.8784C112.356 22.1207 112.963 21.2291 113.414 20.2065C113.865 19.1793 114.09 18.0813 114.09 16.9078C114.09 15.7344 113.863 14.6425 113.414 13.6138C112.963 12.5912 112.356 11.6934 111.589 10.9265ZM110.184 18.8174C109.924 19.4196 109.578 19.9355 109.137 20.3759C108.701 20.8117 108.175 21.1629 107.568 21.4231C106.957 21.6788 106.314 21.8097 105.638 21.8097C104.962 21.8097 104.32 21.6788 103.713 21.4231C103.107 21.1629 102.575 20.8117 102.124 20.3759C101.673 19.9355 101.317 19.418 101.061 18.8174C100.801 18.2215 100.67 17.5839 100.67 16.9078C100.67 16.2318 100.801 15.5896 101.061 14.9828C101.317 14.3761 101.673 13.8494 102.124 13.4136C102.575 12.9731 103.107 12.622 103.713 12.3664C104.32 12.1061 104.962 11.9752 105.638 11.9752C106.314 11.9752 106.957 12.1061 107.568 12.3664C108.175 12.622 108.701 12.9731 109.137 13.4136C109.578 13.8494 109.924 14.3761 110.184 14.9828C110.445 15.5896 110.576 16.2364 110.576 16.9078C110.576 17.5793 110.445 18.2215 110.184 18.8174Z" fill="white"/>
<path d="M121.502 9.11844C120.464 9.56966 119.566 10.1764 118.799 10.9433C118.032 11.7103 117.43 12.6035 116.989 13.6306C116.549 14.6532 116.343 15.742 116.363 16.8893V25.3423H119.882V16.8893C119.882 16.2178 120.006 15.571 120.268 14.9643C120.528 14.3575 120.879 13.8308 121.335 13.395C121.782 12.9546 122.309 12.6035 122.905 12.3478C123.501 12.0876 124.138 11.9567 124.814 11.9567V8.44238C123.641 8.44238 122.538 8.66876 121.5 9.11844H121.502Z" fill="white"/>
<path d="M15.388 11.2131C14.621 10.4462 13.7232 9.84404 12.7007 9.4036C11.6735 8.96778 10.5755 8.74756 9.40198 8.74756C8.2285 8.74756 7.13048 8.96778 6.10792 9.4036C5.08074 9.84404 4.18754 10.4462 3.42062 11.2131C2.6537 11.98 2.05156 12.8778 1.61112 13.9004C1.17068 14.9276 0.955078 16.0256 0.955078 17.1945C0.955078 18.3633 1.17068 19.4352 1.61112 20.4577C2.05156 21.4849 2.6537 22.3781 3.42062 23.145C4.18754 23.9119 5.08074 24.5187 6.10792 24.9699C7.05502 25.3857 8.06372 25.6121 9.14172 25.6414V25.646H13.2073V22.1209H9.08628C8.52418 22.0855 7.99904 21.9608 7.49238 21.7405C6.8964 21.4849 6.37434 21.1292 5.92312 20.6779C5.4719 20.2267 5.11616 19.7047 4.8559 19.1041C4.60026 18.5081 4.46936 17.8705 4.46936 17.1945C4.46936 16.5184 4.60026 15.8454 4.8559 15.234C5.11616 14.6273 5.4719 14.096 5.92312 13.6448C6.37434 13.1982 6.8964 12.8424 7.49238 12.5822C8.08836 12.3219 8.72592 12.1956 9.40198 12.1956C10.078 12.1956 10.7156 12.3204 11.3116 12.5822C11.9076 12.8424 12.4342 13.1982 12.8855 13.6448C13.3367 14.096 13.6878 14.6273 13.9481 15.234C14.2083 15.8454 14.3392 16.4968 14.3392 17.1945V25.6475H17.8535V17.1945C17.8535 16.0256 17.6333 14.9291 17.1913 13.9004C16.7555 12.8778 16.1487 11.98 15.3864 11.2131H15.388Z" fill="white"/>
<path d="M34.2234 17.2635C34.2234 17.9411 34.0925 18.5771 33.8369 19.173C33.5766 19.7752 33.2209 20.2957 32.7697 20.7469C32.3184 21.1981 31.7918 21.5539 31.1804 21.8095C30.5736 22.0698 29.9314 22.2007 29.2554 22.2007C28.5793 22.2007 27.9418 22.0698 27.3458 21.8095C26.7498 21.5539 26.2231 21.1981 25.7765 20.7469C25.3253 20.2957 24.9696 19.7736 24.7093 19.173C24.449 18.5771 24.3228 17.9395 24.3228 17.2635C24.3228 16.5874 24.4475 15.9452 24.7093 15.3385C24.9696 14.7317 25.3253 14.2004 25.7765 13.7492C26.2231 13.298 26.7498 12.9468 27.3458 12.6866C27.9418 12.4263 28.5793 12.2954 29.2554 12.2954H33.0561V8.78113H29.2554C28.1728 8.78113 27.1548 8.97209 26.1969 9.35709C25.2391 9.73747 24.3813 10.2703 23.6251 10.9464C22.8736 11.6178 22.2515 12.4155 21.7694 13.3272C21.2828 14.2404 20.9825 15.2122 20.8716 16.2501C20.827 16.4303 20.8008 16.6012 20.8008 16.7568V17.2635C20.8008 18.4369 21.021 19.535 21.463 20.5621C21.9034 21.5847 22.5056 22.4825 23.2725 23.2494C24.0348 24.0163 24.9326 24.6185 25.9598 25.0589C26.9823 25.4947 28.0804 25.715 29.2538 25.715C30.4273 25.715 31.53 25.4947 32.5679 25.0589C33.6059 24.6185 34.5037 24.0163 35.2706 23.2494C36.0375 22.4825 36.6397 21.5847 37.0801 20.5621C37.5206 19.535 37.7362 18.4369 37.7362 17.2635V4.38905L34.2219 0.939453V17.2635H34.2234Z" fill="white"/>
<path d="M67.64 13.7429L67.4814 13.88L65.3993 15.6541L64.1457 12.5387L61.0688 20.1617H61.0657L58.8112 25.7503H55.8066L62.6396 8.81494H65.6503L67.64 13.7429Z" fill="#F34822"/>
<path d="M67.64 13.7429L67.4814 13.88L65.3993 15.6541L64.1457 12.5387L61.0688 20.1617H61.0657L58.8112 25.7503H55.8066L62.6396 8.81494H65.6503L67.64 13.7429Z" fill="#F34822"/>
<path d="M72.4845 25.7504H69.4769L66.9883 19.5889L69.229 17.6777L72.4845 25.7504Z" fill="#F34822"/>
<path d="M75.2718 14.9023H72.4844L72.4845 25.7504L75.2718 25.7501V14.9023Z" fill="#F34822"/>
<path d="M75.7614 11.0663C75.7614 11.6176 75.5196 12.1443 75.1023 12.5L75.0992 12.5031C74.7126 12.8342 74.2568 12.9713 73.8164 12.9528L59.8301 24.8785L61.484 20.7806H61.4871L62.0877 19.2899L67.8827 14.348L68.3786 13.923L72.013 10.8245C72.0685 10.3625 72.2979 9.93591 72.6537 9.63253L72.6567 9.62945C73.881 8.58841 75.7614 9.45851 75.7614 11.0632V11.0663Z" fill="#F34822"/>
<path d="M75.7614 11.0663C75.7614 11.6176 75.5196 12.1443 75.1023 12.5L75.0992 12.5031C74.7126 12.8342 74.2568 12.9713 73.8164 12.9528L59.8301 24.8785L61.484 20.7806H61.4871L62.0877 19.2899L67.8827 14.348L68.3786 13.923L72.013 10.8245C72.0685 10.3625 72.2979 9.93591 72.6537 9.63253L72.6567 9.62945C73.881 8.58841 75.7614 9.45851 75.7614 11.0632V11.0663Z" fill="#F34822"/>
<path d="M75.7614 11.0663C75.7614 11.6176 75.5196 12.1443 75.1023 12.5L75.0992 12.5031C74.7126 12.8342 74.2568 12.9713 73.8164 12.9528L59.8301 24.8785L61.484 20.7806H61.4871L62.0877 19.2899L67.8827 14.348L68.3786 13.923L72.013 10.8245C72.0685 10.3625 72.2979 9.93591 72.6537 9.63253L72.6567 9.62945C73.881 8.58841 75.7614 9.45851 75.7614 11.0632V11.0663Z" fill="#F34822"/>
</svg>
