<svg width="25" height="26" viewBox="0 0 25 26" fill="none" xmlns="http://www.w3.org/2000/svg">
<path d="M20.8346 7.79102C20.7545 6.31469 20.5351 5.3581 19.935 4.62688C19.7619 4.4159 19.5684 4.22245 19.3575 4.04931C18.205 3.10352 16.4928 3.10352 13.0683 3.10352L12.5013 3.10368C8.57294 3.10368 6.60875 3.10368 5.38836 4.32407C4.16797 5.54446 4.16797 7.50864 4.16797 11.437V14.562C4.16797 18.4903 4.16797 20.4546 5.38836 21.6749C6.60875 22.8953 8.57294 22.8953 12.5013 22.8953L13.0683 22.8951C16.4928 22.8951 18.205 22.8951 19.3575 21.9494C19.5684 21.7763 19.7619 21.5828 19.935 21.3718C20.5351 20.6406 20.7545 19.684 20.8346 18.2076" stroke="#F34822" stroke-width="1.5625" stroke-linecap="round"/>
<path d="M16.6667 8.83398C16.6667 8.83398 20.8333 11.9027 20.8333 13.0006C20.8333 14.0987 16.6667 17.1673 16.6667 17.1673M20.3125 13.0006H9.375" stroke="#F34822" stroke-width="1.5625" stroke-linecap="round" stroke-linejoin="round"/>
</svg>
