<svg width="29" height="29" viewBox="0 0 29 29" fill="none" xmlns="http://www.w3.org/2000/svg">
<path d="M2.95875 16.8019C2.71058 18.3809 3.8201 19.4769 5.17856 20.023C10.3867 22.1171 17.6343 22.1171 22.8423 20.023C24.2008 19.4769 25.3103 18.3809 25.0622 16.8019C24.9097 15.8315 24.1555 15.0234 23.5968 14.2344C22.8649 13.1882 22.7922 12.0471 22.7921 10.8331C22.7921 6.1413 18.8604 2.33789 14.0105 2.33789C9.1605 2.33789 5.22883 6.1413 5.22883 10.8331C5.22872 12.0471 5.156 13.1882 4.42415 14.2344C3.86542 15.0234 3.11126 15.8315 2.95875 16.8019Z" stroke="#080808" stroke-width="1.75052" stroke-linecap="round" stroke-linejoin="round"/>
<path d="M10.5068 24.5117C11.4359 25.2375 12.6629 25.6787 14.0079 25.6787C15.3529 25.6787 16.5799 25.2375 17.5089 24.5117" stroke="#080808" stroke-width="1.75052" stroke-linecap="round" stroke-linejoin="round"/>
</svg>
