<svg width="20" height="20" viewBox="0 0 20 20" fill="none" xmlns="http://www.w3.org/2000/svg">
<path d="M16.666 7.50033C15.9522 4.15124 12.492 1.66699 9.16693 1.66699C6.21463 1.66699 3.40737 3.41629 2.23791 6.15004C0.0749843 11.2061 4.5102 14.6887 7.81976 17.8062C8.18116 18.1445 8.66418 18.3337 9.16693 18.3337C9.62543 18.3337 10.0676 18.1763 10.416 17.8919" stroke="#FD6DE7" stroke-width="1.25" stroke-linecap="round"/>
<path d="M11.6667 7.66351C11.1563 6.81649 10.2277 6.25 9.16667 6.25C7.55583 6.25 6.25 7.55583 6.25 9.16667C6.25 10.3302 6.93128 11.3346 7.91667 11.8027" stroke="#FD6DE7" stroke-width="1.25" stroke-linecap="round"/>
<path d="M14.166 13.333H14.1735" stroke="#FD6DE7" stroke-width="1.66667" stroke-linecap="round" stroke-linejoin="round"/>
<path d="M14.9151 18.0435C14.7144 18.2297 14.446 18.3337 14.1668 18.3337C13.8875 18.3337 13.6192 18.2297 13.4184 18.0435C11.5799 16.3289 9.11618 14.4135 10.3177 11.6327C10.9674 10.1291 12.5268 9.16699 14.1668 9.16699C15.8068 9.16699 17.3662 10.1291 18.0159 11.6327C19.2159 14.41 16.7581 16.3348 14.9151 18.0435Z" stroke="#FD6DE7" stroke-width="1.25"/>
</svg>
