<svg width="23" height="24" viewBox="0 0 23 24" fill="none" xmlns="http://www.w3.org/2000/svg">
<path d="M18.2087 10.4503C16.2872 9.84475 13.9807 9.49194 11.5003 9.49194C9.01996 9.49194 6.71344 9.84475 4.79199 10.4503V13.8044C6.71344 13.199 9.01996 12.8461 11.5003 12.8461C13.9807 12.8461 16.2872 13.199 18.2087 13.8044V10.4503Z" stroke="#C0C0C0" stroke-width="1.4375" stroke-linejoin="round"/>
<path d="M18.2083 11.4086V14.5338C18.3804 15.6631 19.0193 18.1847 21.0833 20.1208C20.3953 21.2501 18.0904 23.0248 14.375 21.0888" stroke="#C0C0C0" stroke-width="1.4375" stroke-linejoin="round"/>
<path d="M4.79199 11.4084V14.5337C4.61998 15.663 3.9811 18.1845 1.91699 20.1207C2.60503 21.25 4.90994 23.0247 8.62533 21.0887" stroke="#C0C0C0" stroke-width="1.4375" stroke-linejoin="round"/>
<path d="M15.8125 16.2003V17.4929C15.8125 18.8544 15.1766 20.1161 14.1375 20.8165L13.275 21.3979C12.1824 22.1344 10.8176 22.1344 9.72498 21.3979L8.86249 20.8165C7.82333 20.1161 7.1875 18.8544 7.1875 17.4929V16.2003" stroke="#C0C0C0" stroke-width="1.4375" stroke-linecap="round"/>
<path d="M18.2087 10.4501L19.2875 9.88192C20.4979 9.08808 21.1031 8.69116 21.0832 8.12406C21.0632 7.55695 20.432 7.21194 19.1694 6.52192L14.6392 4.04611C13.0989 3.20434 12.3288 2.78345 11.5003 2.78345C10.6718 2.78345 9.90173 3.20434 8.36147 4.04611L3.83129 6.52192C2.56869 7.21194 1.93739 7.55695 1.91747 8.12406C1.89754 8.69116 2.50277 9.08808 3.71323 9.88192L4.79199 10.4501" stroke="#C0C0C0" stroke-width="1.4375" stroke-linecap="round"/>
</svg>
