<svg width="63" height="63" viewBox="0 0 63 63" fill="none" xmlns="http://www.w3.org/2000/svg">
<path d="M49.5591 50.0363H49.5837H49.5591ZM49.5591 50.0363C47.9505 51.6315 45.0352 51.2342 42.9907 51.2342C40.4813 51.2342 39.2728 51.725 37.4818 53.516C35.9568 55.0412 33.9124 57.7863 31.5003 57.7863C29.0883 57.7863 27.0438 55.0412 25.5188 53.516C23.7278 51.725 22.5193 51.2342 20.0098 51.2342C17.9654 51.2342 15.0501 51.6315 13.4415 50.0363C11.82 48.4284 12.219 45.501 12.219 43.4434C12.219 40.8433 11.6504 39.6477 9.79872 37.7959C7.04427 35.0416 5.66704 33.6642 5.66699 31.953C5.66702 30.2415 7.04422 28.8643 9.79865 26.1099C11.4516 24.457 12.219 22.819 12.219 20.4625C12.219 18.418 11.8218 15.5027 13.417 13.894C15.0249 12.2726 17.9523 12.6716 20.0099 12.6716C22.3664 12.6716 24.0043 11.9042 25.6572 10.2513C28.4117 7.49686 29.7889 6.11963 31.5003 6.11963C33.2118 6.11963 34.589 7.49686 37.3433 10.2513C38.9959 11.9039 40.6337 12.6716 42.9907 12.6716C45.0352 12.6716 47.9507 12.2743 49.5594 13.8696C51.1807 15.4776 50.7816 18.4049 50.7816 20.4625C50.7816 23.0626 51.3504 24.2582 53.2019 26.1099C55.9565 28.8643 57.3337 30.2415 57.3337 31.953C57.3337 33.6642 55.9565 35.0416 53.2019 37.7959C51.3501 39.6477 50.7816 40.8433 50.7816 43.4434C50.7816 45.501 51.1807 48.4284 49.5591 50.0363Z" fill="white"/>
<path d="M49.5591 50.0363H49.5837M49.5591 50.0363C47.9505 51.6315 45.0352 51.2342 42.9907 51.2342C40.4813 51.2342 39.2728 51.725 37.4818 53.516C35.9568 55.0412 33.9124 57.7863 31.5003 57.7863C29.0883 57.7863 27.0438 55.0412 25.5188 53.516C23.7278 51.725 22.5193 51.2342 20.0098 51.2342C17.9654 51.2342 15.0501 51.6315 13.4415 50.0363C11.82 48.4284 12.219 45.501 12.219 43.4434C12.219 40.8432 11.6504 39.6477 9.79872 37.7959C7.04427 35.0416 5.66704 33.6642 5.66699 31.953C5.66702 30.2415 7.04422 28.8643 9.79865 26.1099C11.4516 24.457 12.219 22.819 12.219 20.4625C12.219 18.418 11.8218 15.5027 13.417 13.894C15.0249 12.2726 17.9523 12.6716 20.0099 12.6716C22.3664 12.6716 24.0043 11.9042 25.6572 10.2513C28.4117 7.49686 29.7889 6.11963 31.5003 6.11963C33.2118 6.11963 34.589 7.49686 37.3433 10.2513C38.9959 11.9039 40.6337 12.6716 42.9907 12.6716C45.0352 12.6716 47.9507 12.2743 49.5594 13.8696C51.1807 15.4776 50.7816 18.4049 50.7816 20.4625C50.7816 23.0626 51.3504 24.2582 53.2019 26.1099C55.9565 28.8643 57.3337 30.2415 57.3337 31.953C57.3337 33.6642 55.9565 35.0416 53.2019 37.7959C51.3501 39.6477 50.7816 40.8432 50.7816 43.4434C50.7816 45.501 51.1807 48.4284 49.5591 50.0363Z" stroke="white" stroke-width="1.5"/>
<path d="M23.75 34.2596L28.4 38.4113L39.25 25.4946" stroke="#141B34" stroke-width="3.5" stroke-linecap="round" stroke-linejoin="round"/>
</svg>
