<svg width="24" height="25" viewBox="0 0 24 25" fill="none" xmlns="http://www.w3.org/2000/svg">
<path d="M20.7994 11.7156L21.4575 11.3557L20.7994 11.7156ZM20.7994 13.2846L21.4574 13.6444L20.7994 13.2846ZM3.20058 11.7154L3.8586 12.0753L3.20058 11.7154ZM3.20057 13.2844L2.54254 13.6443H2.54254L3.20057 13.2844ZM19.5236 8.80907C19.227 8.5199 18.7522 8.5259 18.463 8.82247C18.1738 9.11904 18.1798 9.59387 18.4764 9.88304L19 9.34605L19.5236 8.80907ZM9.68628 17.4596C9.28505 17.3567 8.87638 17.5986 8.7735 17.9998C8.67062 18.4011 8.91249 18.8097 9.31372 18.9126L9.5 18.1861L9.68628 17.4596ZM14.604 6.84114L14.4099 7.56559L14.604 6.84114ZM7.07264 17.2089L6.70374 17.8619L7.50475 16.5959L7.07264 17.2089ZM3.20058 11.7154L3.8586 12.0753C5.43153 9.19919 8.4879 7.25 12 7.25V6.5V5.75C7.91882 5.75 4.36847 8.01686 2.54256 11.3556L3.20058 11.7154ZM20.7994 13.2846L20.1414 12.9247C18.5685 15.8008 15.5121 17.75 12 17.75V18.5V19.25C16.0812 19.25 19.6315 16.9831 21.4574 13.6444L20.7994 13.2846ZM20.7994 11.7156L20.1414 12.0754C20.2862 12.3402 20.2862 12.6599 20.1414 12.9247L20.7994 13.2846L21.4574 13.6444C21.8475 12.9312 21.8475 12.069 21.4575 11.3557L20.7994 11.7156ZM3.20058 11.7154L2.54256 11.3556C2.15249 12.0688 2.15248 12.931 2.54254 13.6443L3.20057 13.2844L3.8586 12.9246C3.7138 12.6598 3.7138 12.3401 3.8586 12.0753L3.20058 11.7154ZM19 9.34605L18.4764 9.88304C19.1347 10.5249 19.6974 11.2635 20.1414 12.0754L20.7994 11.7156L21.4575 11.3557C20.9413 10.4118 20.2876 9.55403 19.5236 8.80907L19 9.34605ZM12 18.5V17.75C11.2002 17.75 10.4251 17.6491 9.68628 17.4596L9.5 18.1861L9.31372 18.9126C10.1732 19.133 11.0735 19.25 12 19.25V18.5ZM12 6.5V7.25C12.8346 7.25 13.6423 7.35991 14.4099 7.56559L14.604 6.84114L14.7981 6.1167C13.905 5.87739 12.9668 5.75 12 5.75V6.5ZM5.43906 16.0574L5.92995 15.4904C5.09529 14.7678 4.39151 13.899 3.8586 12.9246L3.20057 13.2844L2.54254 13.6443C3.16202 14.7771 3.97944 15.7858 4.94816 16.6244L5.43906 16.0574ZM7.07264 17.2089L7.44154 16.5559C6.90181 16.251 6.3956 15.8935 5.92995 15.4904L5.43906 16.0574L4.94816 16.6244C5.48873 17.0924 6.07659 17.5076 6.70374 17.8619L7.07264 17.2089ZM5.43906 16.0574L5.00695 16.6704L6.64054 17.8219L7.07264 17.2089L7.50475 16.5959L5.87116 15.4444L5.43906 16.0574ZM14.604 6.84114L14.4099 7.56559C15.1269 7.7577 15.8096 8.03359 16.4471 8.38219L16.8069 7.72417L17.1668 7.06615C16.426 6.661 15.6321 6.34016 14.7981 6.1167L14.604 6.84114Z" fill="#141522"/>
<path d="M19.4644 4.96436L4.46436 19.9644" stroke="#141522" stroke-width="1.5" stroke-linecap="round" stroke-linejoin="round"/>
<path d="M9 12.5C9 10.8431 10.3431 9.5 12 9.5" stroke="#141522" stroke-width="1.5" stroke-linecap="round"/>
</svg>
