<svg width="172" height="181" viewBox="0 0 172 181" fill="none" xmlns="http://www.w3.org/2000/svg">
<circle cx="88.9199" cy="101.449" r="78.5991" fill="#FF2600" fill-opacity="0.05"/>
<path d="M158.104 69.7799C155.019 80.9382 144.904 105.805 126.712 110.428C108.521 115.05 99.8811 110.162 98.1371 107.837" stroke="#F34822" stroke-width="2"/>
<mask id="path-3-inside-1_77_549" fill="white">
<path d="M96.2764 45.5161C104.815 45.5161 112.956 49.1273 118.686 55.4575C123.716 61.0154 126.502 68.2451 126.502 75.7417V119.799C126.502 140.555 109.676 157.381 88.9199 157.381C68.1639 157.381 51.3379 140.555 51.3379 119.799V76.1353C51.3379 68.3961 54.2683 60.9438 59.54 55.2778C65.3325 49.0522 73.4535 45.5161 81.957 45.5161H96.2764ZM83.7129 61.0103C79.3707 61.0104 75.8506 64.5303 75.8506 68.8726C75.8507 73.2147 79.3707 76.7348 83.7129 76.7349C88.0551 76.7349 91.5751 73.2148 91.5752 68.8726C91.5752 64.5303 88.0552 61.0103 83.7129 61.0103Z"/>
</mask>
<path d="M118.686 55.4575L119.822 54.4287L119.822 54.4287L118.686 55.4575ZM126.502 75.7417H128.035V75.7417L126.502 75.7417ZM88.9199 157.381L88.9199 158.914H88.9199V157.381ZM59.54 55.2778L58.4177 54.2336L59.54 55.2778ZM83.7129 61.0103V59.4772H83.7129L83.7129 61.0103ZM75.8506 68.8726H74.3176V68.8726L75.8506 68.8726ZM83.7129 76.7349L83.7129 78.2679H83.7129V76.7349ZM91.5752 68.8726L93.1082 68.8726V68.8726H91.5752ZM96.2764 45.5161V47.0491C104.382 47.0491 112.11 50.4772 117.549 56.4863L118.686 55.4575L119.822 54.4287C113.801 47.7774 105.248 43.9831 96.2764 43.9831V45.5161ZM118.686 55.4575L117.549 56.4863C122.325 61.7623 124.969 68.6252 124.969 75.7417L126.502 75.7417L128.035 75.7417C128.035 67.8649 125.108 60.2686 119.822 54.4287L118.686 55.4575ZM126.502 75.7417H124.969V119.799H126.502H128.035V75.7417H126.502ZM126.502 119.799H124.969C124.969 139.709 108.829 155.848 88.9199 155.848V157.381V158.914C110.523 158.914 128.035 141.402 128.035 119.799H126.502ZM88.9199 157.381L88.9199 155.848C69.0106 155.848 52.8709 139.709 52.8709 119.799H51.3379H49.8049C49.8049 141.402 67.3173 158.914 88.9199 158.914L88.9199 157.381ZM51.3379 119.799H52.8709V76.1353H51.3379H49.8049V119.799H51.3379ZM51.3379 76.1353H52.8709C52.8709 68.7836 55.6546 61.7043 60.6624 56.3221L59.54 55.2778L58.4177 54.2336C52.882 60.1832 49.8049 68.0087 49.8049 76.1353H51.3379ZM59.54 55.2778L60.6624 56.3221C66.1648 50.4082 73.8792 47.0491 81.957 47.0491V45.5161V43.9831C73.0278 43.9831 64.5002 47.6962 58.4177 54.2336L59.54 55.2778ZM81.957 45.5161V47.0491H96.2764V45.5161V43.9831H81.957V45.5161ZM83.7129 61.0103L83.7129 59.4772C78.5241 59.4774 74.3176 63.6836 74.3176 68.8726H75.8506H77.3836C77.3836 65.377 80.2173 62.5434 83.7129 62.5433L83.7129 61.0103ZM75.8506 68.8726L74.3176 68.8726C74.3176 74.0614 78.5241 78.2678 83.7129 78.2679L83.7129 76.7349L83.7129 75.2018C80.2174 75.2018 77.3837 72.368 77.3836 68.8725L75.8506 68.8726ZM83.7129 76.7349V78.2679C88.9018 78.2679 93.1081 74.0614 93.1082 68.8726L91.5752 68.8726L90.0422 68.8725C90.0421 72.3682 87.2085 75.2018 83.7129 75.2018V76.7349ZM91.5752 68.8726H93.1082C93.1082 63.6836 88.9019 59.4772 83.7129 59.4772V61.0103V62.5433C87.2085 62.5433 90.0422 65.3769 90.0422 68.8726H91.5752Z" fill="#F34822" mask="url(#path-3-inside-1_77_549)"/>
<path d="M78.4502 101.449C78.4502 102.464 78.2503 103.469 77.8618 104.407C77.4734 105.344 76.904 106.197 76.1863 106.914C75.4685 107.632 74.6165 108.201 73.6787 108.59C72.7409 108.978 71.7358 109.178 70.7207 109.178C69.7057 109.178 68.7005 108.978 67.7628 108.59C66.825 108.201 65.9729 107.632 65.2551 106.914C64.5374 106.197 63.968 105.344 63.5796 104.407C63.1911 103.469 62.9912 102.464 62.9912 101.449H64.6953C64.6953 102.24 64.8511 103.024 65.1539 103.755C65.4567 104.486 65.9006 105.15 66.4601 105.709C67.0196 106.269 67.6838 106.713 68.4149 107.016C69.1459 107.318 69.9294 107.474 70.7207 107.474C71.512 107.474 72.2955 107.318 73.0266 107.016C73.7576 106.713 74.4218 106.269 74.9814 105.709C75.5409 105.15 75.9847 104.486 76.2875 103.755C76.5903 103.024 76.7462 102.24 76.7462 101.449H78.4502Z" fill="#F34822"/>
<path d="M91.4424 121.918C91.4424 120.903 91.2425 119.898 90.854 118.96C90.4656 118.022 89.8962 117.17 89.1785 116.452C88.4607 115.734 87.6086 115.165 86.6709 114.777C85.7331 114.388 84.728 114.188 83.7129 114.188C82.6978 114.188 81.6927 114.388 80.7549 114.777C79.8172 115.165 78.9651 115.734 78.2473 116.452C77.5296 117.17 76.9602 118.022 76.5718 118.96C76.1833 119.898 75.9834 120.903 75.9834 121.918H77.6874C77.6874 121.126 77.8433 120.343 78.1461 119.612C78.4489 118.881 78.8927 118.217 79.4523 117.657C80.0118 117.098 80.676 116.654 81.4071 116.351C82.1381 116.048 82.9216 115.892 83.7129 115.892C84.5042 115.892 85.2877 116.048 86.0187 116.351C86.7498 116.654 87.414 117.098 87.9735 117.657C88.5331 118.217 88.9769 118.881 89.2797 119.612C89.5825 120.343 89.7384 121.126 89.7384 121.918H91.4424Z" fill="#F34822"/>
<path d="M104.435 101.449C104.435 102.464 104.235 103.469 103.846 104.407C103.458 105.344 102.888 106.197 102.171 106.914C101.453 107.632 100.601 108.201 99.663 108.59C98.7253 108.978 97.7201 109.178 96.7051 109.178C95.69 109.178 94.6849 108.978 93.7471 108.59C92.8093 108.201 91.9573 107.632 91.2395 106.914C90.5218 106.197 89.9524 105.344 89.564 104.407C89.1755 103.469 88.9756 102.464 88.9756 101.449H90.6796C90.6796 102.24 90.8355 103.024 91.1383 103.755C91.4411 104.486 91.8849 105.15 92.4444 105.709C93.004 106.269 93.6682 106.713 94.3992 107.016C95.1303 107.318 95.9138 107.474 96.7051 107.474C97.4964 107.474 98.2799 107.318 99.0109 107.016C99.742 106.713 100.406 106.269 100.966 105.709C101.525 105.15 101.969 104.486 102.272 103.755C102.575 103.024 102.731 102.24 102.731 101.449H104.435Z" fill="#F34822"/>
<rect x="52.2911" y="138.786" width="73.2576" height="18.3326" rx="9.16629" stroke="#F34822" stroke-width="1.53302"/>
<circle cx="81.8092" cy="23.5878" r="4.26821" fill="#C4C4C4"/>
<circle cx="136.366" cy="25.5039" r="1.91628" fill="#C4C4C4"/>
<circle cx="126.204" cy="55.6536" r="1.91628" fill="#C4C4C4"/>
<circle cx="154.015" cy="76.0781" r="2.49116" fill="#C4C4C4"/>
<circle cx="37.3496" cy="16.8283" r="2.49116" fill="#C4C4C4"/>
<path d="M113.148 5.72803L115.441 3.43509L117.099 5.09287L114.806 7.3858L117.397 9.97726L115.651 11.724L113.059 9.1325L110.76 11.4318L109.102 9.77401L111.401 7.47472L108.918 4.99124L110.665 3.24454L113.148 5.72803Z" fill="#F34822"/>
<path d="M95.4665 5.729L97.7594 3.43607L99.4172 5.09384L97.1243 7.38678L99.7157 9.97824L97.969 11.7249L95.3776 9.13347L93.0783 11.4328L91.4205 9.77499L93.7198 7.4757L91.2363 4.99222L92.983 3.24552L95.4665 5.729Z" fill="#F34822"/>
<path d="M77.7848 5.729L80.0778 3.43607L81.7355 5.09384L79.4426 7.38678L82.0341 9.97824L80.2874 11.7249L77.6959 9.13347L75.3966 11.4328L73.7389 9.77499L76.0381 7.4757L73.5547 4.99222L75.3014 3.24552L77.7848 5.729Z" fill="#F34822"/>
<path d="M60.1032 5.729L62.3961 3.43607L64.0539 5.09384L61.761 7.38678L64.3524 9.97824L62.6057 11.7249L60.0143 9.13347L57.715 11.4328L56.0572 9.77499L58.3565 7.4757L55.873 4.99222L57.6197 3.24552L60.1032 5.729Z" fill="#F34822"/>
<path d="M130.466 5.72803L132.759 3.43509L134.417 5.09287L132.124 7.3858L134.716 9.97726L132.969 11.724L130.378 9.1325L128.078 11.4318L126.42 9.77401L128.72 7.47472L126.236 4.99124L127.983 3.24454L130.466 5.72803Z" fill="#F34822"/>
<path d="M147.785 5.72803L150.078 3.43509L151.736 5.09287L149.443 7.3858L152.034 9.97726L150.287 11.724L147.696 9.1325L145.397 11.4318L143.739 9.77401L146.038 7.47472L143.555 4.99124L145.301 3.24454L147.785 5.72803Z" fill="#F34822"/>
<path d="M165.103 5.72803L167.396 3.43509L169.054 5.09287L166.761 7.3858L169.352 9.97726L167.606 11.724L165.014 9.1325L162.715 11.4318L161.057 9.77401L163.357 7.47472L160.873 4.99124L162.62 3.24454L165.103 5.72803Z" fill="#F34822"/>
<path d="M53.107 28.6687L54.9529 26.8228L56.2875 28.1573L54.4416 30.0032L56.5278 32.0894L55.1216 33.4956L53.0354 31.4094L51.1844 33.2604L49.8499 31.9258L51.7009 30.0748L49.7016 28.0755L51.1077 26.6694L53.107 28.6687Z" fill="#E6E6E6"/>
<path d="M28.4074 60.0202L29.5837 58.8438L30.4342 59.6943L29.2579 60.8707L30.5874 62.2001L29.6913 63.0962L28.3618 61.7668L27.1822 62.9464L26.3317 62.0959L27.5113 60.9163L26.2372 59.6422L27.1333 58.7461L28.4074 60.0202Z" fill="#E6E6E6"/>
<path d="M154.112 48.4479L155.288 47.2716L156.139 48.1221L154.962 49.2984L156.292 50.6279L155.396 51.524L154.066 50.1945L152.887 51.3741L152.036 50.5236L153.216 49.344L151.942 48.0699L152.838 47.1738L154.112 48.4479Z" fill="#E6E6E6"/>
<path d="M1.35498 131.975C5.86344 115.671 20.6433 79.3373 47.2236 72.5829C73.8039 65.8285 86.4276 72.9711 88.9759 76.3677" stroke="#F34822" stroke-width="2"/>
</svg>
