<svg width="20" height="21" viewBox="0 0 20 21" fill="none" xmlns="http://www.w3.org/2000/svg">
<path d="M18.7509 10.6944C18.7509 9.97495 18.6913 9.44995 18.5624 8.90552H10.1794V12.1527H15.1C15.0009 12.9597 14.4652 14.175 13.2747 14.9916L13.258 15.1003L15.9085 17.1126L16.0921 17.1305C17.7786 15.6041 18.7509 13.3583 18.7509 10.6944Z" fill="#4285F4"/>
<path d="M10.1789 19.25C12.5896 19.25 14.6133 18.4722 16.0915 17.1305L13.2741 14.9916C12.5201 15.5068 11.5082 15.8666 10.1789 15.8666C7.81779 15.8666 5.81385 14.3402 5.0995 12.2305L4.99479 12.2392L2.23874 14.3295L2.2027 14.4277C3.67093 17.286 6.6868 19.25 10.1789 19.25Z" fill="#34A853"/>
<path d="M5.10002 12.2306C4.91153 11.6862 4.80245 11.1028 4.80245 10.5C4.80245 9.89722 4.91153 9.31391 5.0901 8.76948L5.08511 8.65352L2.29451 6.52966L2.20321 6.57222C1.59808 7.75835 1.25085 9.09032 1.25085 10.5C1.25085 11.9098 1.59808 13.2417 2.20321 14.4278L5.10002 12.2306Z" fill="#FBBC05"/>
<path d="M10.1789 5.13331C11.8555 5.13331 12.9864 5.84303 13.6313 6.43613L16.1511 4.025C14.6035 2.61528 12.5896 1.75 10.1789 1.75C6.68682 1.75 3.67094 3.71387 2.2027 6.57218L5.0896 8.76944C5.81387 6.65972 7.81782 5.13331 10.1789 5.13331Z" fill="#EB4335"/>
</svg>
