<svg width="267" height="210" viewBox="0 0 267 210" fill="none" xmlns="http://www.w3.org/2000/svg">
<path d="M37.5735 146.889C37.5386 146.679 36.736 146.61 32.8975 146.557C28.7797 146.487 26.18 146.278 25.3948 145.964C25.2553 145.912 25.0633 145.842 24.9587 145.842C24.1386 145.737 23.2836 145.51 23.1964 145.371C23.1441 145.284 23.0394 145.249 22.9696 145.301C22.8126 145.388 20.0732 144.481 19.2881 144.08C19.0089 143.94 18.7123 143.801 18.6425 143.801C18.5553 143.783 17.9969 143.504 17.3863 143.155C16.7756 142.823 16.0951 142.457 15.9032 142.352C14.9959 141.881 12.8149 140.346 11.611 139.351C8.48782 136.752 5.41698 133.053 4.21308 130.453C4.07349 130.156 3.88157 129.842 3.77688 129.79C3.67219 129.72 3.61985 129.598 3.67219 129.511C3.72453 129.441 3.6373 129.284 3.49771 129.162C3.35813 129.04 3.23599 128.848 3.23599 128.726C3.23599 128.481 2.50318 126.719 2.10188 126.004C1.9623 125.759 1.8925 125.498 1.94485 125.445C1.99719 125.393 1.94485 125.166 1.82271 124.939C1.70058 124.73 1.61334 124.468 1.63078 124.381C1.66568 124.311 1.59589 124.137 1.4912 124.032C1.40396 123.91 1.36907 123.753 1.42141 123.701C1.47375 123.648 1.45631 123.491 1.38651 123.369C1.31672 123.247 1.22948 123.037 1.21203 122.88C1.15969 122.322 0.775837 120.333 0.671149 120.089C0.618806 119.949 0.58391 119.618 0.601358 119.356C0.618806 119.094 0.601358 118.798 0.549014 118.71C0.391983 118.466 0.339639 68.443 0.49667 68.443C0.566462 68.443 0.618806 68.2336 0.618806 67.9719C0.618806 67.2565 1.38651 64.6393 1.8925 63.5575C2.48573 62.3187 3.11386 61.2195 3.27089 61.1497C3.34068 61.1148 3.53261 60.8182 3.68964 60.4867C4.02115 59.8062 6.32427 57.3635 7.24901 56.7354C7.58052 56.5086 8.01672 56.1945 8.1912 56.02C8.38313 55.8456 8.6623 55.706 8.83677 55.706C8.99381 55.706 9.22063 55.5838 9.34276 55.4443C9.4649 55.2872 9.81386 55.0778 10.1105 54.9383C10.4071 54.8161 10.8956 54.6068 11.1748 54.4672C11.4714 54.345 11.7855 54.2403 11.8727 54.2229C11.9774 54.2229 12.4659 54.1008 12.9894 53.9437C13.7396 53.7169 13.949 53.5773 14.0014 53.2458C14.0363 53.0364 14.106 52.8096 14.1584 52.7573C14.2107 52.7049 16.6185 52.6351 19.5149 52.6177C22.6032 52.5828 25.0633 52.4956 25.4472 52.3734C26.2149 52.164 26.2323 52.1815 26.3196 52.7573L26.3894 53.176H50.8863C75.261 53.176 75.3831 53.176 75.4006 52.8271C75.4355 52.007 75.4878 51.8674 75.7321 51.8674C75.8717 51.8674 75.9938 52.0245 75.9938 52.1989C75.9938 52.5305 76.1857 52.5479 81.5422 52.6002C84.5782 52.6351 87.1081 52.6002 87.1256 52.5305C87.2303 52.3036 87.8235 52.3734 87.806 52.6177C87.7711 53.6297 87.8584 53.7693 88.5214 53.8739C88.8704 53.9437 89.2891 54.031 89.4287 54.0833C89.5683 54.1531 89.7253 54.2055 89.7777 54.2229C93.6162 55.5489 97.3326 58.8815 99.374 62.8073C99.6706 63.4005 99.9498 63.9937 99.9672 64.1159C99.9847 64.238 100.089 64.4997 100.194 64.6917C100.508 65.2849 100.979 66.8901 100.875 66.9948C100.822 67.0471 100.84 67.1867 100.944 67.3088C101.276 67.7101 101.468 71.5312 101.468 78.1789C101.468 84.1461 101.503 85.0185 101.729 85.0185C101.869 85.0185 101.991 85.1406 101.991 85.2802C101.991 85.507 99.8451 85.5419 83.7058 85.5419C72.2599 85.5419 64.548 85.6117 63.0823 85.7338C53.486 86.5015 45.2855 92.05 40.9409 100.687C39.5102 103.531 38.5855 106.985 38.2889 110.632C38.1842 112.028 38.1318 119.164 38.1667 129.999C38.2191 145.929 38.2016 147.133 37.9225 147.133C37.7654 147.133 37.6084 147.028 37.5735 146.889ZM15.2227 109.917C15.5368 109.637 15.7461 109.341 15.7113 109.254C15.6589 109.184 15.7461 109.097 15.8857 109.027C16.2521 108.887 16.2696 103.723 15.9032 103.025C15.0133 101.297 12.9021 101.193 11.9948 102.798C11.5935 103.513 11.5761 103.67 11.6459 106.427L11.6982 109.306L12.3787 109.899C13.4256 110.806 14.2805 110.806 15.2227 109.917ZM15.1006 96.3247C15.3274 96.1328 15.6764 95.7664 15.8334 95.5221C16.13 95.0859 16.1475 94.1437 16.1475 81.145V67.2565L15.5717 66.5062C14.9261 65.6338 14.2631 65.4245 13.1639 65.6862C12.7102 65.8083 12.3438 66.0526 12.0821 66.419L11.6982 66.9599V81.1276C11.6982 95.1906 11.6982 95.2953 12.0646 95.7664C12.8672 96.8656 14.106 97.0924 15.1006 96.3247Z" fill="#A3B8CE"/>
<path d="M87.5093 153.728C87.5093 153.606 87.8757 150.779 88.3119 147.429C88.7656 144.097 89.0796 141.323 89.0273 141.27C88.9401 141.166 88.1723 141.776 81.9434 146.801C79.2216 149 79.0645 149.104 78.8377 148.773C78.1921 147.9 74.8072 141.619 74.9119 141.532C74.9817 141.462 77.0755 140.66 79.5705 139.717C82.0656 138.793 84.6304 137.833 85.2934 137.589C85.939 137.362 86.4625 137.083 86.4625 136.995C86.4625 136.908 86.445 136.838 86.4101 136.838C86.3752 136.838 84.0372 136.001 81.2106 134.989C78.3841 133.977 75.8367 133.07 75.5226 132.982C75.2085 132.878 74.9119 132.756 74.877 132.668C74.7898 132.546 78.419 125.829 78.7679 125.445C78.8726 125.34 82.9031 128.324 87.3 131.796C88.2945 132.581 89.132 133.174 89.1669 133.14C89.2541 133.07 88.4341 126.98 87.771 122.584C87.6315 121.589 87.5093 120.664 87.5093 120.525C87.5093 120.298 88.0677 120.263 91.6096 120.263C95.6226 120.263 95.7098 120.263 95.7098 120.629C95.7098 120.821 95.326 123.578 94.8375 126.736C94.3664 129.894 93.9651 132.651 93.9651 132.843C93.9651 133.192 95.3434 132.215 99.7403 128.725C102.933 126.23 103.893 125.497 104.033 125.497C104.155 125.497 107.731 131.709 108.063 132.476C108.08 132.546 105.69 133.488 102.741 134.57C99.7927 135.652 97.0708 136.681 96.6869 136.838L96.0239 137.118L98.519 138.042C101.45 139.124 107.993 141.584 108.063 141.637C108.115 141.672 104.277 148.563 104.085 148.755C103.928 148.93 103.335 148.476 97.9606 144.236C96.0065 142.701 94.2966 141.375 94.157 141.288C93.9476 141.166 93.9302 141.34 94.0348 142.265C94.157 143.224 95.2911 151.041 95.6401 153.205L95.7622 153.937H91.627C88.4515 153.937 87.5093 153.885 87.5093 153.728Z" fill="#197CEF"/>
<path d="M132.473 153.815C132.42 153.728 132.734 151.163 133.136 148.092C133.554 145.022 133.938 142.178 133.99 141.776L134.095 141.026L133.293 141.637C132.856 141.968 131.495 143.067 130.292 144.062C127.099 146.662 124.08 149.052 123.958 149.052C123.906 149.052 123.347 148.127 122.719 147.011C122.091 145.877 121.131 144.184 120.608 143.242L119.631 141.532L120.102 141.358C120.364 141.27 121.917 140.695 123.539 140.066C125.179 139.456 127.622 138.548 129 138.042C130.361 137.536 131.478 137.083 131.478 137.03C131.478 136.908 130.292 136.472 123.975 134.204C121.62 133.366 119.718 132.599 119.736 132.511C119.753 132.442 120.242 131.534 120.8 130.54C121.376 129.528 122.248 127.958 122.754 127.05C123.26 126.143 123.696 125.375 123.714 125.358C123.766 125.305 130.728 130.592 133.903 133.07C134.2 133.297 134.182 133.209 133.136 125.846C132.734 122.915 132.42 120.472 132.473 120.403C132.577 120.228 140.499 120.228 140.621 120.403C140.656 120.472 140.324 123.09 139.853 126.195C138.789 133.454 138.841 133 139.015 133C139.103 133 141.074 131.517 143.395 129.72C148.402 125.829 148.839 125.497 148.978 125.497C149.1 125.497 152.939 132.232 152.939 132.459C152.939 132.634 152.695 132.738 147.443 134.658C141.72 136.751 141.005 137.048 141.284 137.205C141.423 137.275 143.255 137.973 145.367 138.758C151.386 140.991 152.939 141.602 152.939 141.724C152.939 141.829 149.17 148.633 148.996 148.86C148.891 148.965 148.263 148.494 145 145.894C140.97 142.684 138.963 141.148 138.893 141.235C138.876 141.253 138.911 141.741 138.998 142.282C139.155 143.277 140.307 151.53 140.499 153.117L140.603 153.937H136.573C134.357 153.937 132.507 153.885 132.473 153.815Z" fill="#197CEF"/>
<path d="M177.366 153.78C177.366 153.676 177.715 150.849 178.151 147.464C178.587 144.097 178.901 141.288 178.866 141.253C178.814 141.2 176.581 142.945 173.876 145.126C171.172 147.307 168.904 149.017 168.816 148.947C168.415 148.529 164.646 141.654 164.751 141.549C164.926 141.392 167.613 140.38 172.515 138.566C174.714 137.763 176.441 137.065 176.354 136.995C176.214 136.838 170.91 134.884 167.124 133.593C165.746 133.122 164.629 132.686 164.629 132.599C164.629 132.529 165.309 131.273 166.147 129.807C166.967 128.359 167.804 126.876 167.996 126.544C168.764 125.166 168.258 124.939 173.719 129.161C176.441 131.273 178.762 133 178.866 133C178.971 133 178.797 131.273 178.395 128.254C177.593 122.461 177.488 121.537 177.471 120.874L177.453 120.35L181.518 120.298L185.566 120.263V120.682C185.566 120.926 185.165 123.735 184.694 126.911C184.205 130.104 183.839 132.808 183.857 132.93C183.891 133.052 184.711 132.529 185.741 131.709C191.097 127.521 193.749 125.497 193.889 125.497C193.959 125.497 194.255 125.916 194.535 126.422C194.814 126.911 195.704 128.498 196.524 129.912C197.326 131.325 197.972 132.511 197.937 132.546C197.902 132.581 197.204 132.86 196.384 133.174C195.564 133.471 194.622 133.82 194.29 133.96C193.959 134.082 193.139 134.396 192.458 134.623C190.661 135.268 186.02 137.03 185.95 137.083C185.933 137.118 186.404 137.327 186.997 137.536C188.899 138.234 191.481 139.194 194.761 140.415L197.937 141.602L197.571 142.317C196.977 143.521 193.907 148.878 193.837 148.878C193.749 148.878 191.568 147.185 185.776 142.631C184.746 141.829 183.891 141.253 183.857 141.357C183.822 141.445 184.153 143.957 184.589 146.906C185.026 149.855 185.409 152.629 185.427 153.065L185.479 153.85L181.431 153.903C178.884 153.92 177.366 153.885 177.366 153.78Z" fill="#197CEF"/>
<path d="M231.053 121.153C231.001 120.891 230.739 120.821 229.605 120.717C227.878 120.56 224.702 119.879 222.94 119.286C217.653 117.524 213.204 114.802 209.522 111.068C204.846 106.305 201.776 100.686 200.415 94.3528C200.118 92.9744 199.996 92.1369 199.804 90.1653C199.769 89.8512 199.629 89.6244 199.455 89.5895C199.211 89.5371 199.176 89.2231 199.176 87.2689C199.176 85.4194 199.228 85.0181 199.438 85.0181C199.699 85.0181 199.717 84.9134 200.048 82.4009C200.17 81.5809 200.484 80.028 200.764 78.9637C203.171 69.5767 209.505 61.7426 218.194 57.3632C226.377 53.2629 236.218 52.6871 244.715 55.8278C249.653 57.6598 254.049 60.5736 257.714 64.4819C262.11 69.1405 264.728 74.2004 266.123 80.7434C266.577 82.8895 266.612 83.2559 266.595 87.3736C266.595 91.439 266.56 91.8926 266.123 93.934C264.274 102.606 259.703 109.62 252.566 114.767C248.274 117.855 241.784 120.298 236.793 120.734C235.659 120.821 235.467 120.891 235.467 121.153C235.467 121.467 235.293 121.484 233.304 121.484C231.35 121.484 231.14 121.449 231.053 121.153ZM236.165 107.09C242.83 105.921 248.518 101.454 251.171 95.3124C255.742 84.7913 250.682 72.8744 239.795 68.5647C236.968 67.4481 232.274 67.0293 229.169 67.64C221.788 69.0707 215.664 74.6017 213.605 81.7205C213.221 83.0116 212.785 85.5939 212.785 86.5187V87.2864H210.36C209.016 87.2864 207.882 87.3387 207.847 87.4259C207.76 87.5481 214.896 100.023 215.053 100.023C215.106 100.023 215.472 99.4476 215.856 98.7496C216.536 97.5806 217.636 95.6788 221.038 89.764C221.788 88.4903 222.382 87.4085 222.382 87.3736C222.382 87.3213 221.265 87.2864 219.886 87.2864C218.508 87.2864 217.339 87.2515 217.304 87.1991C217.112 87.0246 217.531 84.3377 217.967 82.9244C219.032 79.3476 221.178 76.4512 224.214 74.4621C228.837 71.4262 234.351 70.9377 239.114 73.171C242.673 74.8285 245.238 77.2887 246.809 80.5689C247.803 82.6278 248.222 84.2679 248.327 86.6059C248.728 94.8762 242.726 101.873 234.455 102.798C230.966 103.181 227.319 102.309 224.248 100.337C223.795 100.041 223.393 99.8314 223.359 99.8663C223.027 100.268 221.212 103.618 221.265 103.705C221.3 103.775 222.033 104.228 222.87 104.699C225.034 105.921 227.616 106.845 229.797 107.16C231.489 107.404 234.578 107.369 236.165 107.09Z" fill="#197CEF"/>
<path d="M231.908 208.985C231.559 208.758 230.443 207.869 229.413 207.014C228.366 206.176 224.947 203.367 221.771 200.785C218.613 198.202 215.385 195.568 214.618 194.94C213.85 194.294 212.437 193.143 211.477 192.375C210.517 191.59 208.982 190.351 208.075 189.583L206.417 188.222L133.485 188.135L60.5524 188.048L58.9821 187.664C56.7662 187.14 54.8993 186.477 52.8579 185.518C45.8962 182.185 40.4873 175.59 38.5681 168.07C37.6957 164.702 37.7306 165.871 37.6608 138.234C37.6084 121.187 37.6433 111.574 37.7654 110.108C38.3238 103.303 40.9759 97.528 45.6519 92.9043C50.2233 88.4027 56.1032 85.7157 62.5589 85.2097C64.1641 85.0702 85.8694 85.0178 132.298 85.0178H199.7V87.2861V89.5543L130.571 89.6066L61.4248 89.659L59.9418 90.0254C54.1839 91.4736 49.8918 94.2303 46.6115 98.6272C44.5527 101.384 43.4186 103.862 42.6334 107.369L42.2321 109.183V136.664V164.144L42.6334 165.959C43.1918 168.419 43.9071 170.338 44.9714 172.188C48.2342 177.893 53.172 181.627 59.5753 183.215L61.4248 183.686L134.724 183.773L208.022 183.86L208.703 184.384C209.069 184.663 211.704 186.792 214.53 189.095C217.357 191.415 221.126 194.469 222.888 195.899C224.65 197.348 227.163 199.389 228.471 200.453C229.78 201.535 230.896 202.373 230.984 202.32C231.053 202.285 231.106 183.93 231.106 161.562V120.873L233.252 120.891L235.381 120.926L235.433 164.249C235.468 196.353 235.415 207.712 235.276 208.078C234.735 209.387 233.147 209.823 231.908 208.985Z" fill="#CCCCCC"/>
<path d="M14.0537 44.0499C14.0537 33.4764 14.1584 31.8887 15.118 28.1897C15.9555 24.9269 17.7178 20.6871 19.3404 18.1048C24.5574 9.74725 33.0719 3.65793 42.6683 1.45949C48.81 0.0462084 55.9462 0.360271 62.1227 2.31444C70.0441 4.80949 77.1977 10.2009 81.612 16.9707C84.2641 21.0361 85.7123 24.4209 86.8115 29.097C87.6665 32.7436 87.7188 33.6683 87.8061 43.7009C87.8758 53.0704 87.8758 53.2449 87.5269 53.4194C87.3001 53.559 87.143 53.559 87.0732 53.4368C87.0209 53.3321 86.7766 53.3147 86.5498 53.367C86.3404 53.4194 86.0962 53.3845 86.0438 53.2972C85.974 53.1926 83.985 53.1228 80.9316 53.1053C78.1574 53.1053 75.8193 53.0879 75.6972 53.0879C75.5576 53.0879 75.4878 50.6801 75.418 43.8928C75.3482 34.2092 75.2959 33.5113 74.441 30.5801C71.9459 21.891 64.7574 15.3306 55.5798 13.359C53.486 12.9053 48.0946 12.9228 45.9834 13.3764C44.0292 13.7952 42.1972 14.4233 40.4001 15.2782C38.9693 15.9413 38.6553 16.1332 36.579 17.4592C35.4274 18.2095 32.0949 21.4025 31.3969 22.4144C31.1178 22.8332 30.8561 23.1996 30.8037 23.2519C30.7514 23.3043 30.4722 23.7405 30.1756 24.2116C27.9074 27.9105 26.8081 31.1733 26.4417 35.291C26.3545 36.3902 26.2673 40.8045 26.2673 45.0793V52.8785L25.8834 52.9657C25.6566 53.0181 23.179 53.0879 20.3873 53.1053C17.5782 53.1402 15.2751 53.2275 15.2751 53.3147C15.2751 53.3845 15.118 53.4019 14.9261 53.3496C14.7167 53.2798 14.455 53.3321 14.3154 53.4368C14.0886 53.6288 14.0537 52.4249 14.0537 44.0499Z" fill="#CCCCCC"/>
</svg>
